<mxfile host="app.diagrams.net" modified="2023-06-06T01:18:49.595Z" agent="Mozilla/5.0 (Windows NT 10.0; Win64; x64) AppleWebKit/537.36 (KHTML, like Gecko) Chrome/113.0.0.0 Safari/537.36 Edg/113.0.1774.57" version="21.3.7" etag="3Pi26rnhIVM4-5qLHy6j" type="github">
  <diagram name="Page-1" id="Qp6dH8P_T7UDd4BOz_Kf">
    <mxGraphModel>
      <root>
        <mxCell id="0" />
        <mxCell id="1" parent="0" />
      </root>
    </mxGraphModel>
  </diagram>
</mxfile>
